<?xml version="1.0" encoding="UTF-8"?>
<svg id="Layer_1" data-name="Layer 1" xmlns="http://www.w3.org/2000/svg" viewBox="0 0 1080 1080">
  <defs>
    <style>
      .cls-1 {
        fill: #1a171b;
      }
    </style>
  </defs>
  <g>
    <path class="cls-1" d="M504.55,114.11c14.72,18.52,23.64,41.01,28.91,63.9,0,0-.39-.29-.39-.29,0,0,47.72-2.78,47.72-2.78l-.23.07c.07-1.28-.83-3.08-1.26-4.4-.16-.43-.32-.88-.4-1.36,0,0-.05-.46-.05-.46-.7-7.12,2.87-13.85,2.34-20.91,0,0-.06-.86-.06-.86,7.73,1.98,10.31,10.56,15.34,15.66,0,0-.29-.16-.29-.16-.05-.02.13-.02.3-.12,3.07-2,5.16-5.22,7.16-8.25,5.36-8.54,9.08-18.01,13.7-26.97.89-1.59,1.57-3.25,2.63-4.79.21-.24.46-.51.91-.69,0,0,.99-.39.99-.39,0,0,0,1.09,0,1.09,0,0,.03,18.95.03,18.95,0,0-.43-.69-.43-.69,0,0,.96.48.96.48,0,0-.84.09-.84.09.69-.56,1.19-1.28,1.62-2.13,1.82-4.08,2.25-8.78,3.9-12.97.21-.48.49-1.11,1.11-1.56.59-.43,1.28-.58,1.91-.57,1.61,0,3.22,1.02,3.6,2.66,0,0,.23.72.23.72,0,0,7.21,23.06,7.21,23.06l-.26-.4s.31.08.74-.07c.41-.13.86-.34,1.3-.58,2.7-1.57,5.09-3.76,7.41-5.88,9.68-8.69,15.55-20.6,25.09-29.47,0,0,.27-.25.27-.25,0,0,.35,0,.35,0,3.71-.03.42,11.76,1.38,14.17,1.34,7.69-2.19,15.25-2.52,22.81,0,0-1.34-1.01-1.34-1.01,12.19-4.3,23.88-10.15,36.04-14.66,0,0,6.09-2.28,6.09-2.28,2.36-.9,5-1.49,7.65-1.47,1.7,8.32-11.29,14.91-16.48,19.82-1.46,1.27-3.03,2.65-4.09,4.23-.19.3-.35.6-.38.88-.01.03,0,.03,0,.03-.02.02,0-.06-.03-.09-.01-.03-.04-.06-.06-.09,0,0,.01,0,.02,0,.32.28.76.42,1.19.61,1.67.68,3.76,1.14,5.45,1.82,1.41.72,2.88,1.37,4.27,2.13,15.74,9.04,29.47,21.19,42.1,34.12,3.71,3.95,7.64,8.38,10.91,12.7,3.35,4.47,6.53,9.18,8.65,14.52,3.9,10.41,4.5,21.7,10.93,30.96,5.89,9.19,13.57,17.22,20.96,25.47,7.6,8.46,15.53,16.94,16.59,28.93,1.26,11.27-2.17,22.22-2.98,33.25-.47,5.42-.07,10.83,1.21,16.11,1.21,5.28,3.05,10.42,6.36,14.58,3.26,4.19,7.68,7.45,12.23,10.51,23.04,15.29,47.38,28.43,71.91,41.22,8.54,4.6,35.58,18.3,44.17,23.2,9.59,5.42,18.68,11.86,29.13,15.33,5.16,1.72,10.7,3.13,15.75,5.74,9.92,5,20.65,11.92,23.86,23.25,0,0,.04.16.04.16,0,0,0,.16,0,.16,0,0,0,3.84,0,3.84,0,0,0,.88,0,.88,0,0-.81.28-.81.28-.38.13-.91.31-.71.23.18-.18,0,0-.06.3-1.01,4.81-.32,10.02-1.51,14.91-2.12,11.56-7.27,22.28-13.04,32.38,0,0-4.33,7.52-4.33,7.52-7.85,12.22-10.43,26.56-16.83,39.76-5.07,10.54-11.5,20.45-19.16,29.28-.49.46-1.28.74-1.94.72-1.09.05-2.06-.67-2.99-.38-2.66,1.17-4.88,3.24-7.71,4.37-2.52.97-5.5,1.14-7.88,2.12,0,0,.37-.26.37-.26-3.9,4.39-7.71,8.91-11.78,13.22-8.06,8.71-17.82,16.19-29.1,20.21-28.1,9.91-58.51,8.44-87.83,8.11-23.61-1.11-47.01,1.8-70.6,2.51-2.95.07-5.93.05-8.86-.03-4.89-.03-10.49-.17-14.08,3.61-6.69,7.27-4.21,18.11-2.28,26.88,7.43,28.56,22.28,54.41,34.48,81.1,12.74,26.59,23.02,54.52,27.78,83.71,4.29,24.67,7.27,49.75,6.16,74.83,0,0-.31,4.42-.31,4.42-.46,3.72-.22,7.73-2.52,10.9-.5.71-1.45,1.36-2.39,1.08-.26-.04-.44-.18-.65-.29-.57-.4-.65-1.15-.9-1.73-.78-2.3-1.9-6.1-2.66-8.44-2.15-5.39-4.75-10.73-7.85-15.64-.29-.41-.6-.85-.97-1.17-.1-.12-.23-.12-.14-.13,0,0,.44-.25.44-.25l-.75,1.19s.08-.34.08-.34c1.96,17.23,9.08,33.42,11.24,50.67,1.01,8.65,1.05,17.35.7,26.04-.48,8.15-.97,16.45-3.52,24.25-.27.52-.47,1.15-1.36,1.56,0,0-.06.03-.06.03,0,0-.12,0-.12,0-4.56.17-9.12.11-13.66.07-140.88,2.51-281.89.21-422.76.64-81.06,1.17-167.27,6.36-240.86-33.75-27.2-14.38-39.39-35.29-51.77-62.32-11.42-24.87-21.11-50.9-24.7-78.18-1.17-7.9-.74-15.93-1.47-23.83,0,0-.1-.82-.1-.82,0,0-.1-.78-.1-.78-.03-.19-.07-.28-.08-.28,0,0,.01,0-.05-.03,0,0-.77-.56-.77-.56,0,0,0-.79,0-.79,0,0,0-9.6,0-9.6,0,0,0-1.97,0-1.97,0,0,1.9.43,1.9.43.06.01.16.01,0,.02-.08.01-.24.04-.42.17-.19.12-.33.33-.37.42-.08.21-.03.12-.02-.04.02-.16.04-.41.11-.7,0,0,.65-2.17.65-2.17,6.16-20.81,14.1-41.17,24.78-60.1,11.21-20.24,24.76-39.09,38.87-57.35,10.35-13.78,21.37-27.07,30.27-41.83,2.95-4.92,5.82-9.95,9.11-14.79,3.31-4.86,7.07-9.28,10.82-13.68,3.53-4.01,7.9-9.24,11.39-13.04,7.11-8.03,14.58-15.81,21.02-24.38.24-.37.53-.77.7-1.14.05-.13.01-.03,0,.05,0,0-.01.09,0,.17,0,.08.01.17.04.25,0,0,.07.21.07.21.03.12.19.25.13.19,0,0-.61-.34-.61-.34,0,0-.2-.1-.2-.1,0,0-.3-.14-.3-.14-3.66-1.54-7.48-3.1-11.26-4.19-.05,0,.06,0-.03-.01,0,0-.36,0-.36,0,0,0-.73,0-.73,0,0,0-1.45,0-1.45,0,0,0-5.81,0-5.81,0,0,0-1.22,0-1.22,0,0,0-.27-1.16-.27-1.16-.06-.28-.13-.63-.06-1.1.06-.47.36-.96.58-1.19.23-.25.36-.35.42-.41,2.88-3.63,6.21-6.91,9.39-10.24,2.91-2.99,7.55-8.08,10.59-11.16,7.11-7.4,14.3-14.69,20.77-22.55,26.21-31.66,41.43-70.44,61.48-106.05,9.98-17.97,20.74-35.5,31.97-52.7,0,0-.18.41-.18.41.05-.2.02-.5-.15-.92-.17-.42-.47-.91-.78-1.48-7.98-16.42-19.55-30.66-27.04-47.42-8.41-19.02-11.47-40.98-5.68-61.16.56-2.43,1.58-4.72,2.35-7.01.87-2.03,2.03-4.93,3.33-6.75,5.11-7.08,13.2-11.21,20.23-15.93,4.07-2.68,8.24-5.19,12.45-7.63,16.85-9.75,34.46-17.93,51.36-27.32,0,0,.19,1.97.19,1.97-10.37-3.38-21.69,1.57-31.96-2.57-.89-.45-1.87-1.16-2.38-2.32-.52-1.17-.27-2.43.1-3.37.7-1.87,2.34-3.31,3.97-4.33,6.24-3.87,13.13-6.05,20.01-8.3,6.93-2.06,13.82-4.17,21.09-4.8,0,0-.53,1.62-.53,1.62-.56-.45-1.33-.86-2.11-1.22-5.07-2.52-14.89-4.67-11.91-11.7,1.16-2.22,3.82-3.24,5.82-4.21,4.96-2.2,10.14-3.84,15.32-5.4,10.4-2.89,20.8-6.36,31.68-6.88,3.67-.02,7.24.48,10.77.6,0,0-.64,1.22-.64,1.22-5.4-7.31-15.27-9-21.64-15.23-5.68-5.94.1-9.46,7.11-9.51,6.4-.44,12.83-.09,19.2.48,15.24,1.62,30.46,4.47,44.81,9.98,4.51,1.64,9.11,4.98,13.36,6.66-.07.01-.14.06-.17.11l-.11.45c-.94-3.58-1.6-7.22-3-10.57-2.13-5.01-6.61-8.99-8.35-14.31-2.64-9.81,6.14-5.37,11.31-2.79,6.74,3.06,13.17,6.72,19.45,10.59,6.29,3.87,12.43,7.96,18.62,11.96l-.37.19c.11-2.59-.18-5.24.15-7.88.28-2.62.81-5.21.89-7.8.1-5.2-2.96-10.64-.41-15.65,0,0,.09,0,.09,0,0,0,1.99.02,1.99.02h0ZM504.41,114.37s-1.85.02-1.85.02c0,0,.14-.08.14-.08-1.19,2.34-1.02,5.07-.57,7.61.44,2.57,1.17,5.14,1.14,7.82-.07,2.66-.59,5.24-.85,7.84-.33,2.72.02,5.49-.12,8.27-6.33-4.04-12.61-8.18-19.02-12.08-7.83-4.83-16.03-9.09-24.45-12.73-8.58-3.66-5.8,4.58-2.77,9,1.99,3.12,4.48,5.93,5.95,9.39,1.47,3.47,2.14,7.14,3.09,10.67l.07.27s-.19.17-.19.17c-.07.07-.18.13-.28.16-.12.03-.11.01-.16.02-.7-.07-1.27-.4-1.89-.67-3.95-1.89-7.81-4.43-11.92-5.97-14.25-5.39-29.43-8.14-44.55-9.67-6.32-.54-12.66-.84-18.98-.39-16.09,1.12-4.56,9.63,3.2,13.25,5.07,2.56,10.17,5.62,13.42,10.48,0,0-1.6-.05-1.6-.05-3.64-.11-7.2-.59-10.71-.56-3.48.04-7,.72-10.49,1.43-10.42,2.32-20.81,5.27-30.88,8.87-3.26,1.29-7.12,2.51-9.6,4.91-2.01,3.02.78,5.17,3.46,6.54,3.22,1.79,6.82,2.49,9.88,4.7,0,0,1.8,1.45,1.8,1.45,0,0-2.33.18-2.33.18-8.33.48-40.82,9.51-43.32,16.33-2.55,6.62,18.44,4.08,22.08,4.17,3.68-.06,7.4.18,10.95,1.32,0,0,2.37.74,2.37.74l-2.18,1.22c-21.18,11.89-43.31,21.73-63.57,35.05-4.07,2.69-8.22,5.16-12.03,8.02-3.78,2.87-7.38,6.05-9.13,10.31,0,0-1.43,3.27-1.43,3.27-8.38,21.29-5.8,45.61,3.42,66.21,6.93,15.4,17.59,28.97,25.43,43.96,0,0,1.63,3.22,1.63,3.22.76,1.26,1.55,2.64,1.19,4.36-11.05,17.4-22.02,34.93-31.93,53.02-20,35.77-35.22,74.68-61.65,106.61-6.57,7.99-13.81,15.33-20.9,22.73-5.77,6.18-12.74,13.19-18.41,19.53-.61.65-1.03,1.34-1.62,1.95,0,0-.27.26-.27.26,0,0,.14-.2.15-.35.02-.15,0-.17,0-.14l-1.48-1.16s5.81,0,5.81,0c0,0,1.45,0,1.45,0,0,0,.73,0,.73,0h.36c.15,0,.5.04.69.09,1.13.28,1.99.6,2.95.92,3.14,1.13,6.27,2.26,9.31,3.65,0,0,.44.24.44.24.14.09.29.15.66.38.5.26,1.21,1.12,1.18,1.86,0,.13,0,.27-.02.31-.05.29-.14.59-.25.81-1.37,2.54-3.27,4.62-5.05,6.84-7.38,8.85-15.34,17.24-22.87,25.95-4.97,5.85-11.95,13.5-16.25,19.94-4.81,7.07-8.85,14.84-13.63,22.02-21.42,30.66-46.5,58.76-64.42,91.74-10.55,18.74-18.4,38.87-24.53,59.47,0,0-.6,1.97-.6,1.97-.01.05-.03.17-.05.36-.04.2-.02.47-.26,1.01-.16.53-1.08,1.18-1.63,1.18-.53.06-.78-.01-1.08-.06,0,0,1.9-1.54,1.9-1.54,0,0,0,9.6,0,9.6,0,0-.77-1.35-.77-1.35.84.4,1.53,1.63,1.61,2.48.55,4.05.66,8.1.72,12.14.17,13.54,2.84,26.87,6.3,39.94,4.73,17.47,11.44,34.36,18.98,50.81,9.28,20.34,20.19,40.99,39.01,53.93,74.19,47.83,166.24,41.69,250.89,40.95,145.45.11,290.96,2.5,436.4.51,0,0-.18.03-.18.03.13-.03.46-.46.64-.9.2-.45.36-.94.51-1.44.81-3.11,1.39-6.29,1.84-9.48,1.61-12.8,1.84-25.91.48-38.73-2.04-17.28-9.57-33.7-11.11-51.03,0,0,.75-1.19.75-1.19,0,0,.17-.27.17-.27l.27.02c.98.14,1.43,1.06,1.97,1.75,2.84,4.36,4.98,9.1,7.15,13.81.3.66.6,1.39.82,2.1,0,0,.67,2.12.67,2.12,0,0,1.3,4.22,1.3,4.22.22.7.44,1.4.68,2.09.15.43.28.81.45,1.18,0,0-.02-.01-.03-.01,0,0,.05.03.07.04.12.06.23.16.35.16.43.16.93-.2,1.34-.72,2.12-2.99,1.87-6.86,2.32-10.36,1.56-20.55-.28-41.19-3-61.57-3.18-23.31-8.09-46.46-16.58-68.46-8.36-22.04-19.15-43.02-29.25-64.3-7.57-15.98-15.04-32.17-19.39-49.38-2.21-9.55-4.8-22.65,4.31-29.48,6.6-4.03,14.71-1.92,21.98-2.47,17.65-.44,35.27-2.61,52.95-2.89,17.68-.12,35.35.76,53.01.12,20.34-.86,41.42-2.51,59.82-11.85,7.74-4.11,14.41-9.88,20.38-16.28,4.01-4.27,7.79-8.78,11.69-13.21,0,0,.15-.17.15-.17l.22-.09c3.51-1.41,7.04-1.21,10.17-3.35,1.54-.92,3-1.96,4.73-2.88.49-.26,1.11-.52,1.7-.54.66-.02,1.2.13,1.65.24.44.12.82.21,1.09.21.25-.01.37-.05.56-.21,0,0-.1.1-.1.1,7.46-8.71,13.74-18.42,18.66-28.78,5.67-11.51,8.15-24.73,14.62-36.21,4.78-8.5,10.43-17.66,14.14-26.66,2.79-6.54,4.71-13.46,5.62-20.48.21-2.85.18-5.75.46-8.67.16-1.33.29-2.92,1.43-3.92.38-.26.67-.33.84-.4l.46-.15s-.81,1.17-.81,1.17c0,0,0-3.84,0-3.84,0,0,.04.31.04.31-1.32-5.06-4.8-9.38-8.86-12.87-4.09-3.51-8.8-6.33-13.7-8.74-4.83-2.49-10.11-3.82-15.45-5.59-5.38-1.75-10.42-4.35-15.27-7.08-7.27-4.17-14.16-8.57-21.61-12.35-36.28-19.11-74.94-37.82-109.02-60.55-10.61-6.87-17.04-14.04-19.65-26.71-1.33-5.51-1.75-11.25-1.25-16.89.83-11,4.21-21.81,3.04-32.77-.98-11.33-8.66-19.42-15.93-27.56-7.35-8.24-15.09-16.33-21.17-25.83-1.07-1.76-2.23-3.67-3.1-5.56-4.03-8.14-4.81-17.56-8.01-25.85-3.27-8.11-9.14-15.26-14.84-21.89-8.74-9.72-18.38-18.69-28.65-26.76-6.61-5.12-13.53-10.04-21.11-13.59-1.71-.59-3.68-1.14-5.38-1.8-4.05-1.34-2.5-4.22-.38-6.46,3.85-4.09,8.63-7.11,12.88-10.65,2.68-2.56,6.28-5.19,6.13-9.14,0,0,1.11.96,1.11.96-3.99.09-7.93,2.18-12.05,3.54-4.04,1.47-8.03,3.12-12.01,4.79-8.41,3.55-16.84,7.29-25.55,10.26,0,0,.1-1.51.1-1.51.42-7.05,3.01-13.46,2.91-20.21-.12-1.5-.55-3.03-.51-4.66.21-3.47,1.04-6.88.38-10.26-.01-.04,0,.02.06.05.08.06.2.12.34.11,0,0,.62-.25.62-.25-3.1,2.88-5.88,6.12-8.51,9.5-5.27,6.78-10.2,14.11-16.67,19.87-1.6,1.47-3.23,2.91-4.98,4.24-1.65,1.14-3.34,2.6-5.48,2.75-.44.03-1.09-.2-1.49-.59,0,0-.08-.25-.08-.25,0,0-7.15-23.13-7.15-23.13,0,0-.22-.72-.22-.72-.18-1.23-2.11-1.87-2.99-1.22-.21.14-.39.46-.58.9-1.26,3.27-1.81,6.71-2.87,10.08-.6,1.92-1.32,4.1-3.14,5.58,0,0-.39.32-.39.32,0,0-.45-.23-.45-.23,0,0-.96-.49-.96-.49,0,0-.43-.22-.43-.22,0,0,0-.48,0-.48,0,0,.03-18.95.03-18.95,0,0,1,.7,1,.7-.08,0-.42.38-.62.76-1.65,3.09-3.3,6.22-4.81,9.4-2.98,5.91-13.13,29.7-20.08,30.49-5.28-4.71-7.11-12.94-14.28-15.37,0,0,.76-.6.76-.6.17,2.43-.12,4.83-.56,7.15-.84,4.78-2.56,9.67-1.77,14.53.39,1.4,1.08,2.77,1.41,4.18.19.7.37,1.83-.41,2.29,0,0-.15,0-.15,0,0,0-47.73,2.52-47.73,2.52,0,0-.32.02-.32.02,0,0-.07-.31-.07-.31-5.12-22.82-13.87-45.22-28.31-63.8h0Z"/>
    <path class="cls-1" d="M487.1,181.79c6.71.4,13.07-3.41,16.63-8.97,3.4-5.76,1.93-12.95.46-19.11,0,0,.1.21.1.21.07.06-.19-.09-.42-.12-.23-.05-.49-.09-.75-.13-1.66-.29-3.59-.26-4.93-1.46-1.69-1.69-1.85-3.82-3.86-5.06-6.95-4.97-14.68-9.07-22.24-13.1-3.4-1.8-7.45-3.81-10.78-5.04.13,0,.38-.27.38-.36l-.14-.81c4.44,5.9,7.73,12.91,9.09,20.2,1.91,7.18.78,12.23-7.65,8.94-6.84-2.62-12.87-7.14-19.82-9.2-18.37-6.07-37.89-8.48-57.2-7.75,0,0,1.24-1.04,1.24-1.04-.02.07,0,.11-.01.02,0-.09-.12-.33-.17-.36,0,0,.63.44.63.44,2.59,1.75,5.64,2.81,8.4,4.37,3.44,1.97,6.44,4.46,9.62,6.8,1.33,1.09,2.75,2,3.91,3.39.74,1,1.02,2.24,1.12,3.41.27,4.07-1.48,6.15-5.56,6.32-5.79.51-11.53-.87-17.17-.21-1.86.48-3.36,1.45-5.39,2-11.94,2.98-25.04,4.2-35.83,9.56.09-.13,0-.5-.04-.52-.09-.03.83.56,1.22.81,7.45,3.78,16.72,3.42,12.65,14.9-12.99.14-25.94,2.16-38.35,6.04-3.75,1.19-8.33,2.73-9.69,6.72,0,0-.45-.75-.45-.75,10.16,1.97,21.15-.29,31.37,2.58,2.06.48,4.1.96,6.15,1.55,1.27.25,2.68,1.25,2.1,2.69-.45,1.19-1.44,1.9-2.3,2.5-1.78,1.2-3.63,2.21-5.48,3.22-3.73,1.99-7.46,3.89-11.2,5.85-11.23,5.73-22.82,10.83-33.74,17.11-7.31,4.13-14.15,8.95-20.16,14.84-6.01,5.79-12.07,11.69-17.32,18.16-2.55,3.28-3.79,7.17-4.15,11.29-1.16,12.44.27,25.12,3.75,37.1,0,0-.9-.72-.9-.72-.13-.01-.26.03-.36.09-.04.02-.08.05-.1.08,0,0,.04-.07.07-.18.5-2.21.28-4.41.54-6.72,1.38-10.39,8.92-14.82,18.65-11.46,10.4,3.55,18.12,12.05,25.04,20.18,13.6,16.6,24.02,35.31,35.42,53.14,11.49,17.57,25.84,33.59,42.29,46.64,8.16,6.22,17.31,12.08,27.52,13.71,16.47,2.59,30.21-4.95,39.41-18.45,18.74-27.45,23.96-73.49,26.72-106.39,2.35-29.06,3-58.4,6.09-87.45.83-7.68,1.87-16.15,3.23-23.72,1.08-5.29,2.28-10.36,2.36-15.81h0ZM487.3,182c.24,5.21-1.08,10.58-1.97,15.7-.89,5.22-1.41,10.52-2,15.78-5.46,52.82-2.3,106.68-14.34,158.73-6.73,29.97-22.56,70.08-60.14,64.46-27.16-4.51-57.37-39.49-71.84-61.84-11.34-17.93-21.65-36.56-34.96-53.07-4.98-6.06-10.31-11.94-16.87-16.25-7.14-4.76-18.13-7.79-21.83,2.52-1.29,3.03-.89,6.32-1.34,9.57-.05.6-.23,1.29-.61,1.88-.29.41-.77.68-1.29.65,0,0-.71-.03-.71-.03-2.43-8.39-3.81-17.08-4.1-25.8-.06-6.37-.19-12.92,1.83-19.06,2.31-6.11,7.46-10.4,11.78-15.05,5.99-5.95,11.96-11.97,18.86-16.89,13.82-9.75,29.56-16.17,44.56-23.77,3.72-1.94,7.5-3.83,11.18-5.83,1.83-1.01,3.68-2.03,5.38-3.2.85-.58,1.63-1.22,1.93-2.04.3-.75-.4-1.17-1.47-1.43-4-1.04-8.14-2.13-12.23-2.66-8.28-.91-16.78.34-25.23-1.27,0,0-.64-.12-.64-.12.59-2.52,2.48-4.5,4.58-5.7,5.77-3.06,12.2-4.39,18.49-5.97,8.41-1.87,17-2.93,25.62-3.17,0,0-.83.61-.83.61.76-2.3,1.05-4.87-.33-6.5-1.49-1.78-4.08-2.47-6.29-3.22-2.16-.69-4.48-1.44-6.42-2.75-.28-.2-.62-.32-1.06-.9-.26-.33-.36-1.05-.15-1.44.19-.44.41-.6.6-.77,2.01-1.37,4.27-2.02,6.48-2.91,9.8-3.71,20.22-4.97,30.03-7.48,1.7-.45,3.56-1.6,5.45-2.04,3.36-.62,6.73-.07,9.99.02,3.34.06,6.76.61,9.86-.43,1.14-.76,1-3.2.52-4.52-.7-1.41-2.48-2.32-3.71-3.4-4.05-3.03-8.02-6.21-12.68-8.25-1.9-.93-3.9-1.83-5.65-3.14-.12-.09-.29-.18-.57-.44-.55-.42-.73-1.55-.54-2.13,0,0,.2-1,.2-1,0,0,1.05-.04,1.05-.04,21.99-.53,44.65,2.17,64.96,10.98,4.36,2.13,8.47,4.78,12.96,6.5,6.89,2.78,5.77-1.19,4.78-6.38-1.26-7.15-4.25-13.69-8.53-19.56,0,0-.27-.38-.27-.38l.14-.43c.07-.37.55-.84.93-.89.38-.09.62-.03.82,0,7.94,3.03,15.19,7.54,22.56,11.71,3.72,2.24,7.45,4.43,10.95,7.14.89.7,1.81,1.61,2.28,2.64.52,1,.89,1.98,1.56,2.57,1.2,1.08,3.53,1.01,5.12,1.4.29.1.59.08,1.04.54,0,0,.07.07.07.07,0,0,.03.14.03.14,1.42,6.39,2.74,13.88-.91,19.77-3.65,5.48-10.36,9.56-17.07,8.79h0Z"/>
    <path class="cls-1" d="M978.58,463.03c-.15-.06-.22-.03-.31-.12,0,0-.36-.28-.36-.28-2.93-2.09-8.75-4.83-12.02-6.6-39.07-20.22-79.79-37.35-117.42-60.3-14.52-8.97-29.25-18.44-40.92-31.08-25.84-27.55-28.6-67.15-43.68-100.28-17.71-38.64-50.84-56.58-91.82-61.93-9.63-1.25-19.37-2-29.07-2.1-4.85,0-9.75.23-14.7.1,0,0,.59-2.41.59-2.41,20.52,10.4,42.07,19.11,61.38,31.78,52.36,34.46,81.1,93.37,99.88,151.32,9.82,30.79,10.9,62.26-11.66,87.81-5.03,5.88-10.85,11.08-17.02,15.7-1.27.78-6.36,5.39-6.82,2.26-4.48-6.7-10.19-16.23-15.06-22.97-.58-.84-1.37-1.79-1.93-2.39-.59-.17-1.1-.1-1.76.03-1.52.46-3.11,1.89-4.4,2.96-2.88,2.48-5.49,5.24-8.47,7.8-27.48,21.53-62.11,30-93.81,43.23-14.24,5.64-28.44,11.43-42.16,18.25-6.83,3.41-13.65,7.03-19.99,11.16-2.15,1.75-4.81,3.89-7.91,3.62-9.47-.03-14.23-9.91-18.58-16.87-1.94-3.32-3.82-6.67-5.42-10.2-3.17-6.43-.43-8.28,4.15-12.62,8.03-9.33,5.42-18.76,2.93-29.58-1.66-7.51-2.21-15.55.19-22.99,2.28-6.57,6.61-11.96,9.66-18.11.17-.34.41-.63.57-.94.1-.18.19-.37.22-.51.02-.15,0-.11-.01-.15l.62.04c-28.31,17.58-53.96,41.51-67.35,72.51-6.6,15.39-10.75,31.77-13.97,48.19-2.93,15.41-4.86,31.07-5.28,46.76,0,.7.06,1.41.24,2.03.04.15.16.14-.14.02,0,0-.5.04-.5.04,4.77-2.25,8.11-6.41,13.06-8.57,1.37-.57,2.91-.89,4.38-.52,4.86,1.13,5.2,7.18,4.19,11.12,0,0-1.13-1.16-1.13-1.16,37.45-9.2,78.16-7.75,113.71,7.96,17.84,7.73,33.51,19.25,50.19,28.54,12.44,7,25.83,12.51,39.99,14.39,33.38,4.15,67.04-.98,100.55-1.75,24.02-.61,48.03.53,71.98-1.43,26.62-2.3,45.02-3.57,64.24-24.59,0,0,.64,2.55.64,2.55l-.73-.25.78.07c-35.35,6.03-70.68,14.24-106.79,14.45-32.05-2.1-63.96,3.04-96.01,3.7-17.88.13-39.92.45-55.35-9.87-5.95-4.12-9.65-11.01-9.47-18.3-.48-14.54,16.48-18.85,27.94-20.45,30.79-4.65,50.32,7.16,78.25,15.54,7.62,2.16,15.73,3.12,23.44,5.3,5.15,1.47,10.07,3.56,15.23,4.77,0,0,7.78,1.56,7.78,1.56,15.61,2.52,31.9,2.78,47.62,1.3,26.41-2.5,52.69-8.69,76.95-19.51,6.06-2.71,11.82-6.54,18.29-8.46,1.35-.45,2.82-.76,3.76-1.51.34-.74.72-1.43,1.35-2.09,5.19-3.63,7.29,13.21,5.81,15.76-.63,1.43-1.45,2.38-1.45,3.36,0,0-.95-.94-.95-.94,0,0,2.3-.1,2.3-.1,0,0-.64.31-.64.31,6.88-7.96,12.61-16.9,17.24-26.37,4.63-9.47,8.16-19.48,10.67-29.73,0,0,.93.88.93.88-1.44.42-2.71,1.58-4.33,2.45-5.83,2.97-10.25.31-14.69-3.43-2.71-2.17-5.2-4.56-7.6-7.02-11.82-12.42-22.27-26.25-30.41-41.36-4.62-8.92-9.31-19.83-4.43-29.62,7.26-14.61,29.61-20.69,44.78-20.16h0ZM978.86,463.14c-15.42.23-36.92,5.37-44.44,20.34-3.04,6.22-2.16,13.38.35,19.63,3.7,9.54,9.29,18.23,15.17,26.57,8.01,10.95,16.68,21.76,27.15,30.42,2.67,2.05,5.38,4.37,8.57,4.36,1.56,0,3.21-.43,4.59-1.13,1.4-.73,2.71-1.99,4.58-2.59,0,0,1.24-.39,1.24-.39-2.5,10.8-6.1,21.37-10.93,31.37-4.69,9.72-10.54,18.92-17.6,27.12,0,0-.39.02-.39.02l-2.3.11s-.98.05-.98.05l.03-.99c.05-1.52,1.02-2.78,1.57-3.99,1.03-2.59-.43-11.96-2.78-13.69,0,.02.11-.05-.03.05-.55.47-.72,1.54-1.31,2.07-2.37,1.87-5.55,1.94-8.18,3.28-4.81,2.2-9.47,4.82-14.33,7.15-14.65,6.73-30.13,11.53-45.84,15.03-26.17,5.69-53.47,8.02-80.05,3.82,0,0-7.94-1.56-7.94-1.56-5.26-1.21-10.24-3.31-15.36-4.75-7.73-2.15-15.64-3.03-23.46-5.23-20.41-5.73-39.9-16.06-61.35-16.21-10.37.01-21.24.92-30.83,4.93-4.44,1.97-8.86,5-9.93,9.94-1.41,7.56,1.43,15.07,7.88,19.5,20.13,13.61,61.45,8.87,85.44,7.52,21.16-1.59,43.3-3.4,64.13-2.03,36.01-.22,71.27-8.55,106.68-14.48,0,0,.38.13.38.13,0,0,.72.25.72.25,0,0,2.26.79,2.26.79-15.72,17.59-30.4,23.56-53.52,25.86-28.73,3.56-57.72,2.11-86.56,2.67-32.42.79-64.89,5.27-97.38,2.05-3.36-.5-7.51-.96-10.81-1.81-31.11-6.62-55.14-29.76-83.55-42.18-35.52-15.86-76.36-17.24-113.85-7.89,0,0,.39-1.53.39-1.53,1.31-4.45-.23-10.88-6.04-8.41-4.67,2.04-8.35,6.39-13.11,8.53,0,0-.27.11-.27.11,0,0-.23-.07-.23-.07-1.5-.49-1.45-2.48-1.5-3.75.04-3.21.27-6.33.47-9.51,2.33-29.33,7.88-58.78,19.29-86.01,13.63-31.19,39.53-55.19,68.03-72.86,0,0,.31-.19.31-.19s.31.24.31.24c1.01.94-.08,2.05-.52,2.88-.51.95-1.01,1.92-1.55,2.86-2.74,4.99-6.25,9.71-8.08,15.1-2.34,7.23-1.81,15.1-.2,22.46.78,3.74,1.79,7.46,2.25,11.31.47,3.83.39,7.87-1.01,11.56-1,2.75-2.52,5.33-4.45,7.55-2.45,2.52-6.48,5.03-5.01,8.98,1.54,4.49,4.01,8.61,6.36,12.74,4.4,7.3,10.28,18.6,20.48,16,1.71-.55,3.07-1.92,4.65-3.07,6.49-4.25,13.25-7.83,20.12-11.29,20.65-10.2,42.17-18.46,63.64-26.72,23.2-8.74,47.04-16.94,67.3-31.54,0,0,4.53-3.47,4.53-3.47,3.54-3.07,6.83-6.79,10.69-9.67,1.33-1.08,3.43-2.06,5.33-1.5,1.37.68,1.9,1.93,2.79,2.96,3.95,5.34,9.04,13.58,12.74,19.2,0,0,1.56,2.41,1.56,2.41l.79,1.18c.11.19.13.14.28.45.12.3.12.51.13.5,0,0,0-.11-.19-.3-.17-.16-.39-.17-.4-.17,4.6-2.53,9.34-6.71,13.36-10.33,8.35-7.69,15.46-16.89,19.95-27.33,12.42-28.86,1.73-60.61-8.85-88.35-18.41-49.71-46.27-98.48-91.47-128.18-6.34-4.22-12.93-8.05-19.72-11.5-15.42-7.67-31.07-15.18-46.55-22.8,11.67.5,23.55-.35,35.22.74,47.07,3.27,87.63,19.85,108.16,64.96,14.95,33.06,17.4,72.5,42.92,100.06,0,0,5.06,5.23,5.06,5.23,2.72,2.39,5.35,4.97,8.24,7.16,12.47,9.76,26.02,18.12,39.68,26.12,33.88,19.53,69.75,35.33,104.3,53.62,0,0,6.47,3.45,6.47,3.45,2.02,1.09,4.1,2.13,5.89,3.58.15.11.31.33.39.47h0Z"/>
    <path class="cls-1" d="M817.29,340.21c-1.11-5.41.94-11.11,1.62-16.38.61-5.27-.09-10.75-.78-16.03-.95-6.64-2.29-13.64-6.53-19.05-1.63-2.15-3.43-4.27-5.49-6-.71-.56-1.46-1.16-2.29-1.34-.22-.03-.21.03-.2.04l.31-.82c2.86,15.28,4.38,30.73,7.73,45.9.55,2.51,1.16,5.01,1.92,7.45.75,2.19,1.42,4.65,3.48,5.94,0,0,.19.12.19.12l.09.05h.02s.03.02-.02.02c-.04,0-.08.06-.08.1h0ZM817.58,340.29s-.07.1-.13.12c-.07.02-.05,0-.08,0-.08,0-.16-.03-.23-.06-2.59-.91-3.83-3.55-4.94-5.83-5.16-12.05-7.23-25.19-8.61-38.14-.59-5.36-1.09-10.71-1.5-16.08.59-.48,1.34-.83,2.11-.58,2.5.92,4,3.25,5.65,5.15,7.12,8.62,11.08,19.71,11.82,30.82.12,2.81.12,5.65-.44,8.51-1.11,5.63-3.55,10.45-3.65,16.09h0Z"/>
    <path class="cls-1" d="M713.18,281.5c-3.58.62-6.83,2.4-9.97,4.17-5.52,3.06-13.07,8.12-18.48,11.53-1.52,1-2.98,1.97-4.49,3.01-2.02,1.47-4.3,2.68-5.02,4.99-.43,2.42,1.58,4.45,3.19,6.06,2.56,2.49,5.45,4.73,8.39,6.85,8.86,6.28,18.51,11.56,28.34,16.14,1.53.7,3.29,1.41,4.91,1.8,3.2.84,6.17.69,6.8-2.95.84-5.11.03-10.63-.25-15.85-.56-7.21-1.4-14.4-2.34-21.58-1.52-7.77-.31-15.76-11.08-14.17h0ZM713.14,281.2c7.65-1.2,9.9,1.79,11.63,8.78,3.62,12.35,5.42,25.15,5.56,38.03.24,12.21-6.5,13.51-16.22,8.38-9.7-5.19-18.69-11.47-27.87-17.48-8-5.62-20.97-12.26-7.52-20.9,7.47-5.32,15.85-9.19,24.14-13.03,3.32-1.49,6.62-3.18,10.28-3.78h0Z"/>
    <path class="cls-1" d="M685.66,344.9c2.67-.32,5.32.2,7.92-.09,0,0-.09.46-.09.46-2.85-1.34-6.34-2.84-8.94-3.98-12.8-3.56-25.97.66-36.98,7.37-11.13,6.86-20.46,17.11-25.82,29.08,0,0-.05.11-.05.11l-.12.11-5.95,5.59c-1.98,1.87-3.95,3.74-5.96,5.58,0,0-1.09-2.03-1.09-2.03,7.01-2.09,13.8-4.93,20.31-8.31,6.48-3.41,12.8-7.23,18.75-11.45,9.59-7.17,18.72-15.59,29.93-20.27,1.48-.57,3.79-1.33,5.33-1.7,0,0,2.76-.47,2.76-.47h0ZM685.7,345.19s-2.71.51-2.71.51l-2.65.8s-2.55,1.07-2.55,1.07l-2.46,1.26c-9.71,5.65-16.85,14.2-25.86,20.98-6.04,4.52-12.45,8.38-19.21,11.69-8.16,4.09-16.97,7.11-25.91,9.06,4.97-4.31,11.2-9.42,16.29-13.67,9.91-18.32,30.45-40.78,54.38-39,3.43.29,6.79,1.05,9.97,2.27,3.16,1.73,6.33,3.44,9.54,5.08-2.97.25-5.93-.32-8.83-.05h0Z"/>
    <path class="cls-1" d="M698.15,357.3c-2.09-1.85-5.12-.02-7.22.71-3.06,1.1-2.58,4.12-.24,5.81,2.05,1.55,4.02,1.43,5.8-.21,1.62-1.49,3.78-4.31,1.66-6.3h0ZM698.35,357.08c2.75,2.24,3.01,6.4.33,8.86-3.98,3.6-8.61,1.75-10.26-3.12-2.14-4.27,1.06-9.09,5.88-7.95,1.53.39,2.89,1.22,4.05,2.22h0Z"/>
    <path class="cls-1" d="M736.18,390.57c-9.22-10.44-19.61-21.79-28.61-32.28,0,0,2.11-.83,2.11-.83.61,6.62,5.63,12.64,4.04,19.66-2.01,3.92-5.51,6.85-8.51,9.97-4.63,4.89-10.96,8.41-17.81,8.36-13.27-.05-24.62-8.36-37.64-9.54-2.1-.18-4.28-.25-6.31.14-2.06.39-4.22,1.11-6.56.82,0,0-.42-.05-.42-.05-.14-.74-.24-1.5-.08-2.27.3-1.79,1.81-3.15,2.99-4.28,0,0,.62,1.19.62,1.19l-7.89,1.82.6-.49c-1.81,3.66-4.47,8.37-6.46,11.93-1.97,3.7-4.3,7.31-5.7,11.25,0,.02,0,.05-.01.07.02-.09,0-.19-.03-.27l-.22-.43c.51.65,1.71,1.19,2.91,1.88,0,0,3.46,1.95,3.46,1.95,6.84,3.83,13.93,7.46,21.41,9.69,9.98,3.06,20.57,3.4,30.92,2.59,12.3-1.1,24.61-4.51,34.91-11.47,1.23-.69,3.55-2.68,4.7-3.51,0,0,2.86-2.67,2.86-2.67,3.71-3.76,6.9-8.06,9.39-12.8,1.73-.2,3.48-.26,5.36-.45h0ZM736.46,390.68c-1.7.3-3.51.71-5.38,1,0,0,.26-.19.26-.19-2.23,4.86-5.13,9.44-8.78,13.42,0,0-2.83,2.89-2.83,2.89,0,0-3.09,2.62-3.09,2.62-1.49,1.24-3.35,2.44-4.93,3.55-18.16,11.19-44.23,14.13-64.58,7.89-9.02-2.83-17.23-7.53-25.3-12.29-1.24-.77-2.86-1.51-3.77-2.84-.18-.57-.09-1.26.11-1.79,3.4-7.86,8.98-15.28,12.99-22.79,0,0,.21-.42.21-.42l.39-.07c1.9-.38,8.68-1.66,10.41-2.01-1.16,1.17-3.13,2.58-4.02,3.89-.55.79-.75,1.71-.61,2.69l-.49-.48c1.99.33,4.06-.3,6.22-.67,2.22-.36,4.4-.27,6.58-.08,12.81,1.29,24.49,9.07,37.48,8.57,6.39-.22,11.86-3.75,16.05-8.32,2.23-2.27,4.47-4.56,6.46-7.02.62-.79,1.33-1.68,1.39-2.22.88-6.23-3.66-12.07-3.95-18.43,0,0-.22-3.66-.22-3.66,0,0,2.33,2.83,2.33,2.83,9.02,10.87,18.23,22.91,27.06,33.93h0Z"/>
    <path class="cls-1" d="M704.54,370.58c-2.41.13-4.57.31-6.65.38l.66-.36c-1.38,2.62-1.7,6.26-3.96,8.63-3.88,4.13-10.19,5.09-15.45,4.17-3.22-.61-6.41-2.02-8.62-4.52-1.27-1.58-2.01-3.69-3.55-4.85-.84-.4-1.83-.38-2.76-.35-1.99.12-3.98.64-5.93,1.24l.42-.55c.3,5.39,4.87,9.43,9.33,11.84,9.17,4.68,21.62,4.82,29.91-1.65,3.08-2.45,5.18-6.13,5.99-9.99.32-1.14.4-2.8.58-3.98h0ZM704.75,370.37c2.7,17.05-15.45,25.4-29.93,21.44-8.33-1.98-17.6-8.45-17.24-17.89,3.04-.66,6.28-1.6,9.42-.91,1.26.49,1.98,1.7,2.71,2.59,2.04,3.54,5.87,5.06,9.78,5.38,4.6.37,9.88-.14,13.38-3.37,2.24-2.22,2.73-5.66,4.68-8.16,2.49.24,5.02.61,7.19.92h0Z"/>
    <path class="cls-1" d="M463.15,859.29c-.07-4.8-.15-15.75-.18-20.31,0-.61-.1-1.36.43-1.76,1.47-1.03,3.37-1.52,5.13-.99,9.02,41.71,46.49,66.95,75.73,94.66,4.96,4.78,9.85,9.62,14.24,14.95,4.37,5.34,8.26,11,12.58,16.27,0,0-1.35.54-1.35.54-.98-11.82-5.63-22.85-8.8-34.23-.28-2.99,4-4.65,6.41-3.79.67.28,1.11.75,1.52,1.24,1.82,2.35,2.78,4.91,4.05,7.48.56,1.19,1.33,2.36,2.01,3.57l2.1,3.58c18.48,30.96,39.97,59.97,61.16,89.11,0,0-.89-.45-.89-.45,0,0,92.76-.12,92.76-.12l-1.17,1.02c4.02-29.23,1.98-59.1-5.71-87.58,0,0-.2-.83-.2-.83,2.31-1.69,5.36-2.45,8-1.14.24.16.55.38.67.52,0,0,.47.47.47.47,3.35,4.01,5.98,8.46,8.66,12.88,2.1,3.72,3.43,7.94,5.76,11.51,0,0,.04.04-.01,0-.02-.02-.05-.04-.08-.06,0,0-.04-.02-.04-.02,0,0-.12-.07-.19-.09-.18-.06-.33-.07-.55-.04-.29.02-.63.24-.78.47,0,0-.24.86-.24.86-2.72-34.72-13.18-68.85-31.03-98.78-30.49-50.55-88.1-100.78-95.69-161.4-.2-1.53-.34-3.74-.38-5.31,0,0-.11-2.66-.11-2.66l.07-2.66c.05-10.7,3.53-21.35,9.45-30.25,0,0,.93,1.67.93,1.67-36.69,1.61-75.54,17.12-96.15,48.8-6.11,9.2-9.23,19.88-10.85,30.73-.97,4.73.51,18.08-7.98,13.42-6.17-3.93-10.86-9.69-15.59-15.15-5.65-6.87-10.79-14.26-14.3-22.48,0,0,.83.33.83.33.01.02.04-.02,0,.01-.12.15-.2.28-.29.46-1.83,4.44-2.58,9.28-3.59,13.97-1.03,5.09-1.82,10.18-2.09,15.36-.32,5.16-.3,10.36-.43,15.56-.32,4.33.19,14.87-3.73,17.22-5.16,2.73-16.64-17.71-18.76-21.9-4.76-9.31-8.06-19.29-10.48-29.42l.2.3s-.19-.03-.42.05c-8.38,3.32-12.71,13.03-21.77,15.16,0,0-.47.11-.47.11,0,0-.1-.47-.1-.47-2.79-12.56-6.63-25.03-7.19-37.99,0,0,.77.3.77.3-2.52,2.65-3.75,6.29-4.98,9.7-3.88,10.5-6.43,21.38-8.79,32.31,0,0-.03.15-.03.15-.12.1-.25.22-.41.25-.37.06-.66-.19-.87-.4-1.98-2.4-3.3-5.25-4.8-7.95-4.43-8.74-8.53-17.62-12.26-26.68-17.13-42.07-28.47-88.08-23.09-133.71,0,0,.6-4.87.6-4.87.54-3.27,2-6.24,2.61-9.42.49-1.69-.39-2.97-.23-4.83,1.62-6.45,4.56-12.3,7.2-18.35,4.03-9.02,10.19-16.69,14.62-25.44,4.54-8.61,8.49-17.55,11.72-26.73,4.31-12.24,7.38-24.92,8.89-37.8,0,0,1.37.81,1.37.81-13.67,9.97-31.37,14.85-40.19,30.04-2.88,4.79-5.07,10.05-7.87,15.08-5.67,9.98-13.45,18.71-22.1,26.21-9.22,7.88-19.98,14.26-31.85,17.39,0,0,.64-1.96.64-1.96,10.26-31.5,17.47-64.69,14.66-97.92,0,0,2.07.84,2.07.84-2.74,2.45-3.93,6.58-5.78,9.91-2.85,4.58-5.82,10.26-11.31,12.2-1.71.57-3.79.02-5.18-1.08-1.22-2.3-.17-4.81-.02-7.08.11-4.5-.09-9.16-.41-13.67-1.17-20.05-5.58-39.51-10.67-58.95,0,0,1.06,1.02,1.06,1.02-.03,0-.03,0,.02,0,.06,0,.15-.04.18-.07.05-.05-.1.11-.31.39-1.15,1.34-2.03,2.8-2.93,4.35-3.68,6.27-7.09,12.58-10.31,19.15-3.08,5.97-6.03,12.17-10.06,17.63-1.91,2.33-4.45,4.37-6.03,6.66,0,0-8.61,11.74-8.61,11.74-5.92,7.71-10.59,15.98-14.59,24.79-10.03,22.02-16.89,46.29-33.22,64.82-7.91,9.37-16.78,17.57-24.98,26.53-4.93,5.42-9.09,11.34-14.51,16.45,0,0,.47-.9.47-.9,0,0-.02.18-.02.18,0,0,.01-.01-.02-.19-.09-.43-.44-.84-.84-.99-.43-.14-.42-.08-.39-.09.22-.03.99.15,1.04.2,5.17,1.79,10.47,3.13,14.99,6.47.95.73,2.67,2.17,2.81,3.83.11.35-.05,1.24-.18,1.46-2.08,4.14-5.07,7.42-7.84,11.02-11.78,15.25-26.41,28.27-37.14,44.24,0,0-1.69-2.4-1.69-2.4,4.64-1.12,9.13-2.89,13.49-4.98,8.85-4.22,16.93-9.51,24.88-15.28,3.54-2.51,7.16-4.91,10.89-7.15.64-.32,1.15-.71,1.9-.88.25-.08.65-.07.93.01.24.06.46.19.64.32,0,0,.78.62.78.62-4.75,16.99-7.12,35.22-3.5,52.63.05.12.22.82.22.89,0,.07.06-.08-.32-.44-.3-.24-.62-.33-.93-.27,0,0-1.1.94-1.1.94,7.51-19.12,21.25-37.85,41.76-43.93-8.59,46.37,7.49,83.4,32.91,121.19,0,0-1.95-.47-1.95-.47,0,0,.94-.52.94-.52l-.75,1.4c-1.45-18.82-3.8-38.24,1.12-56.85,1.02-3.33,4.55-13.19,9.36-10.14.79.59.93,1.9,1.17,2.64,1.06,4.42,2.01,10.3,2.85,14.81,4.96,23.83,12.95,46.99,22.92,69.18,7.33,16.13,15.9,31.69,25.55,46.55,0,0-.82-.53-.82-.53-.04-.01-.07-.01-.12,0-.23-.03-.64.32-.66.46-.06.17-.01.06-.03-.05-.04-.43-.28-2.9-.32-3.46-1.78-20.28-5.04-41.19-.46-61.33.96-4.76,2.98-6.98,8.02-6.48,0,0,.18.82.18.82,1.84,8.62,4.15,18.08,6.88,26.44,10.92,34.76,29.41,67.22,53.88,94.25,1.13,1.13,5.87,6.21,7.08,7.43,2.13,2.17,5.33,5.07,7.39,7.11,8.39,7.76,17.44,14.66,26.74,21.33,3.7,2.7,7.38,5.41,10.99,8.26,3.59,2.88,6.96,5.97,10.63,8.63,0,0-.88.5-.88.5,0,0-7.42-89.94-7.42-89.94l-.02-.21s.19-.07.19-.07c6.38-2.49,6.89.97,8.55,6.06,3.54,8.37,8.09,16.3,13.61,23.51h0ZM463.25,859.58c-4.51-4.97-7.83-10.93-10.94-16.84-2.05-3.76-3.43-7.47-4.89-11.45-1.13-2.59-4.06-1.94-6.23-1.05,0,0,.17-.28.17-.28,0,0,7.99,89.89,7.99,89.89l.11,1.21c-4.13-2.85-7.85-6.23-11.72-9.3-10.82-8.45-22.5-15.76-32.79-24.93-2.96-2.44-7.34-6.54-10.17-9.27-24.72-23.92-44.18-53.31-57.21-85.11-5.24-12.65-9.52-25.96-12.61-39.31,0,0-1.53-6.72-1.53-6.72,0,0,.99.86.99.86-3.48-.32-4.34,1.82-4.98,4.87-.65,3.03-1.21,6.07-1.52,9.16-1.88,17.02.67,34.47,2.22,51.45,0,0,.21,2.35.21,2.35l.03.29.03.24c.03.2.06.42.07.69,0,.28.04.58-.17,1.11-.13.42-.8.96-1.34.95-.15,0-.28,0-.41-.02,0,0-.51-.05-.51-.05-9.88-15.08-18.66-30.88-26.16-47.28-10.11-22.34-18.24-45.72-23.3-69.74-.81-4.42-1.83-10.31-2.86-14.64-.12-.5-.29-1.09-.4-1.37,0,0,.05.08.08.11.04.05.08.09.12.13.04.03.11.08.09.06-.03-.01-.09-.06-.11-.06-.04-.01-.03-.02-.09,0-.1,0-.43.19-.72.48-.61.59-1.19,1.47-1.69,2.37-.99,1.79-1.87,3.88-2.42,5.82-4.84,18.56-2.28,37.92-.81,56.84,0,0-.83.46-.83.46,0,0-.94.52-.94.52l-1.19.66c-25.52-37.43-42.61-75.65-34.64-121.92,0,0,2.01,1.69,2.01,1.69-4.48,1.55-8.71,3.82-12.55,6.64-11.65,8.62-19.59,21.34-24.91,34.7,0,0-.31.78-.31.78,0,0-.79.16-.79.16-.62.13-1.2.05-1.75-.39-.59-.56-.62-.99-.69-1.2-.1-.5-.07-.35-.19-.77-.78-2.87-1.07-5.78-1.39-8.71-1.41-14.98.57-30.16,4.59-44.59,0,0,.51,1.62.51,1.62.29.26.75.39,1.12.31-10.39,5.86-19.66,14.07-30.36,19.66-7.68,4.35-15.9,7.84-24.63,9.6,4.88-7.74,10.63-14.98,16.71-21.69,9.11-10.03,18.13-19.95,26.35-30.67,1.21-1.82,3.08-3.9,3.81-5.62,0,.12,0,.07,0,.06,0,0,0-.03-.02-.07-.02-.04,0-.06-.05-.12-.2-.42-.83-1.04-1.51-1.53-1.38-1.03-3.08-1.92-4.73-2.69-1.66-.76-3.44-1.36-5.27-1.96,0,0-2.77-.91-2.77-.91,0,0-1.4-.49-1.4-.49-.21-.07-.03,0,.01-.01.03,0,.02,0-.03,0-.09-.02-.2.05-.74-.14-.31-.12-.62-.39-.79-.66-.12-.18-.2-.41-.24-.61-.06-.3-.04-.43-.04-.55.01-.25.04-.39.06-.54,0,0,.07-.52.07-.52l.4-.38c3.44-3.23,6.47-6.95,9.57-10.69,12.31-14.92,27.86-27.13,38.34-43.47,13.06-20.47,18.82-44.65,30.98-65.67,4.34-7.7,11.74-16.7,16.83-23.9,2.25-3.18,5.11-5.07,7.15-8.17,5.99-9.08,10.14-19.2,15.53-28.69,2.2-3.61,3.93-7.34,6.55-10.68.42-.45.43-.69,1.18-1.27.51-.38,1.36-.51,1.94-.36,0,0,.85.16.85.16l.21.86c5.05,19.41,9.54,39.28,10.64,59.44.28,4.13.46,8.48.39,12.65,0,0-.03,1.27-.03,1.27,0,1.87-1.04,4.37-.36,5.63,0,0-.44-.54-.44-.54,1.91,1.42,3.96.15,5.6-1.23,2.77-2.47,4.97-5.96,6.87-9.21,2.01-3.58,3.01-7.57,6.35-10.56,0,0,1.87-1.65,1.87-1.65,0,0,.2,2.49.2,2.49,2.73,33.61-4.63,67.08-15.08,98.81,0,0-1.33-1.39-1.33-1.39,18.88-5.57,34.75-19.17,46.31-34.83,5.23-6.81,8.08-14.75,12.51-22.17,8.85-15.37,27.3-20.72,40.8-30.47,0,0,1.61-1.16,1.61-1.16-2.59,23.47-10.18,46.2-21.24,67-4.43,8.69-10.69,16.46-14.68,25.33-2.04,4.42-4.02,8.88-5.74,13.43-.55,1.5-1.12,3.06-1.41,4.53-.14.98.49,2.39.37,3.56-.34,3.71-2.21,7.09-2.81,10.68-7.66,53.45,7.62,107.6,30.04,155.84,2.85,5.6,5.2,11.64,9.07,16.62.05.06-.03-.11-.32.1l-.13.24c2.37-10.93,4.96-21.9,8.86-32.41,1.29-3.53,2.53-7.23,5.21-10.03,0,0,.73-.74.73-.74.22,6.76,1.35,13.45,2.81,20.06,1.38,6.28,3.05,12.5,4.46,18.8,0,0-.58-.36-.58-.36,8.07-1.96,12.26-10.16,19.28-14,.75-.43,1.56-.94,2.43-1.19.42-.09.84-.2,1.41.18,0,0,.05.21.05.21,3.58,15.09,9.33,29.81,18.55,42.37,1.89,2.33,7.87,11.63,10.3,7.01,2.05-4.65,1.72-10.07,2-15.08.12-10.38.22-20.92,2.49-31.12.92-4.48,1.73-9.01,3.24-13.35.37-.76.4-1.4,1.3-2.01,0,0,.54-.33.54-.33,0,0,.28.66.28.66,3.47,8.06,8.6,15.36,14.19,22.1,4.27,4.97,8.64,10.02,13.92,13.91,2.63,1.9,5.24,2.93,6.08-1.69.56-2.68.46-5.46.75-8.19,1.36-9.35,3.43-18.79,7.86-27.23,10.34-19.93,28.82-34.65,49.07-43.71,16.91-7.58,35.32-11.68,53.84-12.24,0,0-1.16,1.75-1.16,1.75-3.79,5.72-6.47,12.19-7.89,18.9-7.99,45.83,31.73,95.13,57.99,129.71,17.1,22.18,35.15,44.17,47.02,69.77,12.13,25.63,19.24,53.54,21.38,81.77,0,0-.28.39-.28.39-.18.26-.57.5-.9.55-.26.04-.46,0-.69-.07-.09-.03-.25-.1-.26-.11-.45-.27-.78-.77-1.04-1.17-1.85-3.2-3.41-6.89-4.97-10.24-2.71-4.6-5.49-9.32-8.87-13.42,0,0-.33-.33-.33-.33-.13-.14-.16-.11-.22-.19-.06-.05-.17-.1-.28-.13-1.31-.41-3.26-.06-4.29.64,0,0,.49-1.31.49-1.31,3.77,14.3,6.38,29.12,7.24,43.95.96,15.2.42,30.49-1.76,45.57,0,0-1.03,0-1.03,0,0,0-92.76-.06-92.76-.06,0,0-.56,0-.56,0,0,0-.33-.45-.33-.45-19.46-27-39.22-53.91-56.61-82.35-2.89-4.78-5.74-9.45-8.45-14.44-1.15-2.38-2.22-5.1-3.8-7.15-.24-.29-.54-.63-.84-.75-.6-.24-1.33-.1-2.01.07-1.15.31-2.21,1.13-2.15,1.9l-.03-.19c1.56,5.68,3.49,11.29,5.17,17,1.67,5.7,3.09,11.55,3.55,17.55,0,0,.19,2.43.19,2.43-7.1-8.58-13.02-17.96-20.85-25.85-29.85-31.17-73.65-57.76-82.29-102.41-1.42-.43-3.37,0-4.57.87-.19.18-.28.34-.29.57,0,0,0,.86,0,.86,0,4.84-.15,15.72-.18,20.57h0Z"/>
    <path class="cls-1" d="M1018.38,491.76c-2.68-8.32-11.54-12.56-18.75-16.45-7.61-3.89-15.76-6.87-24.32-7.33-13.44-.77-32.63,5.45-38.39,18.61-2.54,6.37,2.72,11.91,6.33,16.68,3.77,4.45,7.66,8.94,12.49,12.19,11.09,6.92,12.76-4.43,18.48-11.27,4.4-5.74,12.03-6.66,18.65-7.58,8.58-1.15,17.29-2.13,25.51-4.84h0ZM1018.65,491.9c-8.1,3.93-16.84,5.31-25.38,7.02-5.04,1.09-10.59,1.65-14.61,5.06-4.11,3.56-5.62,8.95-9.26,13.11-9.66,10.71-22.17-4.78-28.02-12.36-3.77-5.21-8.77-11.93-5.66-18.61,6.02-12.55,26.3-20.76,39.67-20.63,8.99.1,17.62,3.45,25.33,7.78,7.07,4.11,16.74,9.79,17.92,18.65h0Z"/>
    <path class="cls-1" d="M954.86,530.42c-.35.32-.44.84-.4,1.33.17,1.51.99,2.97,1.91,4.14,5.02,6.06,22.27,5.32,29.19,2.8,3.87-1.33,7.34-4.06,9.12-7.73.7-1.42,1.2-3.43.34-4.73-.03-.03.01.05,0,.04-2.81,1.11-4.63,4.01-6.95,5.97-4.33,2.93-9.79,3.05-14.76,2.98-1.64-.08-3.31-.24-4.91-.59-4.56-1.26-8.83-3.72-13.54-4.21h0ZM954.67,530.2c.56-.24,1.11,0,1.69.06,3.61.7,7.29,1.44,10.92,1.96,3.88.42,8.29.08,12.14-.4,2.35-.34,4.8-.82,6.71-1.95,2.02-1.71,3.82-3.73,6.15-5.17.86-.5,1.93-1.06,3.1-.88,3.48.89,2.23,5.92.73,7.96-3.7,5.61-10.09,8.14-16.27,9.96-8.01,2.4-18.93,2.35-24.1-5.4-.8-1.44-1.48-2.92-1.6-4.57-.03-.54.07-1.17.53-1.58h0Z"/>
  </g>
  <path class="cls-1" d="M463.2,859.44c-5.45-6.52-10.02-14.92-13.53-22.71-2.01-4.47-1.41-9.59-8.58-6.75l7.7,89.92c-4.02-2.88-7.65-6.28-11.56-9.31-9.39-7.27-19.36-13.82-28.5-21.41-43.29-35.95-73.03-87.85-84.26-142.97-4.32-.22-5.23,2.01-6.08,5.65-4.71,20.09-.9,43.41.81,63.68.04.52.35,1.79-.47,1.67-22.54-34.43-39.07-73-48.25-113.23-.57-2.52-3.25-18.89-4.04-19.48-3.06-2.27-6.64,7.25-7.17,9.22-4.91,18.32-2.5,37.9-1.04,56.53l-.94.52c-12.92-19.46-24.94-40.25-31.06-63-5.05-18.77-5.62-37.53-2.54-56.72-18.73,6.46-31.37,24.39-38.4,42.22-.63.14-.57-.5-.71-.95-.52-1.69-.91-4.27-1.14-6.07-1.95-15.46.05-31.74,4.25-46.71-.31-.26-2.76,1.38-3.32,1.71-8.23,4.97-15.69,11.23-24.2,16.12-7.49,4.3-15.41,8.46-23.84,10.47,8.28-12.62,19.31-23.1,29.05-34.54,2.41-2.83,15.88-18.65,15.89-20.88s-4.56-4.56-6.37-5.45c-3.4-1.69-7.02-2.56-10.55-3.86-.52-.19-.81.23-.65-.76,5.38-5.05,9.65-11.15,14.63-16.57,12.24-13.32,25.46-24.56,35.01-40.34,13.44-22.2,19.61-50.46,34.64-71.42,3.88-5.4,7.96-10.67,11.79-16.05,1.66-2.33,4.99-5.02,6.57-7.34,6.13-8.97,11.42-21.9,17.28-31.67,1.44-2.41,3.42-6.29,5.16-8.28.48-.54.74-1.18,1.64-1,3.54,14.2,7.27,28.43,9.06,43.01,1.14,9.24,2.25,20.94,1.98,30.16-.05,1.83-1.11,4.02-.24,6.01,5.43,3.87,11.67-6.36,14.07-10.42,2.07-3.51,3.21-7.98,6.33-10.7,2.77,33.55-4.53,66.75-14.87,98.37,19.12-5.4,36.66-20.73,47.91-36.79,8-11.43,9.47-22.6,20.98-31.81,9.51-7.61,21.1-12.11,30.94-19.21-2.76,23.37-10.66,46.08-21.82,66.71-3.95,7.29-9.08,14.07-12.66,21.41-1.9,3.89-7.57,16.56-8.15,20.21-.18,1.17.46,2.27.37,3.65-.2,3.08-2.27,7.25-2.8,10.68-8.3,53.6,9.74,115.34,33.61,163.02.39.79,5.44,10.64,6.17,9.9,2.22-10.21,4.62-20.64,8.16-30.48,1.39-3.86,2.94-8.92,5.76-11.75.57,12.98,4.41,25.35,7.21,37.91,8.05-1.82,12.54-10.29,19.36-14,.65-.35,2.57-1.62,3.22-1.16,3.62,15.21,9.13,29.46,18.31,42.18,7.18,9.95,12.39,14.66,13.37-2.29.6-10.29-.04-19.17,1.49-29.7.42-2.89,3.69-21.13,5.45-21.9,2.65,6.3,6.5,12.23,10.6,17.71s13.91,16.95,19.54,19.81c6.59,3.34,5.57-7.91,6.16-11.78,1.93-12.48,4.2-21.48,10.96-32.23,19.96-31.76,60.5-48.27,96.97-49.65-5.18,7.75-8.51,17.27-9.12,26.63-3.83,59.14,62.82,122.02,92.83,169.18,19.96,31.36,31.43,67.43,34.36,104.57-.58.79-5.28-10.16-5.67-10.88-1.38-2.51-8.12-13.52-9.98-14.49-1.55-.81-4.46-.37-5.87.64,1.42,5.94,3.01,11.91,4.1,17.92,4.14,22.81,4.81,47.15,1.57,70.12l-92.76.03c-22.35-30.88-45.55-62.24-64.56-95.35-1.26-2.2-3.74-8.92-5.84-9.54-1.73-.52-5.25.68-5.17,2.84,3.15,11.37,7.82,22.52,8.76,34.39-5.48-6.72-10.22-13.98-16.07-20.4-30.44-33.41-75.87-58.07-86-105.72-1.2-.61-5.21.27-5.21,1.61v21.35Z"/>
  <path class="cls-1" d="M978.72,463.08c-17.91-.44-48.55,8.75-46.55,31.43,1.61,18.3,30.36,55.19,44.89,66.45,4.17,3.24,7.09,5.48,12.56,3.46,1.99-.73,3.45-2.37,5.43-2.96-4.95,20.51-14.15,40.48-27.94,56.51l-2.3.1c.07-1.79,1.48-2.83,1.8-4.67.53-3.05-.72-11.22-2.89-13.44-1.75-1.79-2.49,1.22-3,1.79-1.03,1.13-5.5,2.01-7.28,2.81-6.09,2.72-11.94,6.15-18.07,8.81-37.02,16.07-90.44,24.79-130.02,15.6-5.61-1.3-10.68-3.53-16.13-4.99-7.65-2.06-15.4-2.95-23.14-5.18-18.52-5.32-37.38-14.76-56.89-16.07-12.02-.81-44.95.68-46.8,17.03-3.28,29.13,40.72,29.7,59.74,29.49,33.14-.36,66.08-5.99,99.4-3.8,36.08-.22,71.17-8.45,106.53-14.43l.73.25c-9.71,10.54-21.22,18.21-35.42,21.21-9.97,2.11-21.82,3.22-32.02,3.98-25.72,1.9-51.46.37-77.28,1.44-29.06,1.2-60.94,4.86-89.75,1.92-37.38-3.81-60.67-28.69-93.04-43.27-35.81-16.12-76.12-17.75-114.08-8.56,1.05-3.87.53-9.98-4.56-10.12-4.73-.13-11.39,7.4-15.83,9.16-1.09-.22-.77-4.38-.73-5.51,1.02-26.8,7.11-60.17,16.44-85.3,13.06-35.18,39.4-60.52,70.68-80.01.64.54-.36,1.68-.65,2.23-6.47,12.54-12.05,16.17-11.14,32.09.78,13.65,8.82,25-1.02,37.81-2.21,2.88-6.35,4.79-6.19,8.73s8.57,17.71,11.16,21.49c2.86,4.17,6.68,8.85,12.15,9.45,5.9.65,6.59-1.91,10.84-4.52,21.45-13.16,46.97-23.06,70.4-32.31,27.81-10.98,60.01-20.39,83.59-39.28,3.02-2.42,10.41-10.54,13.36-11.12.75-.15,1.43-.24,2.18-.01,1.68.5,15.18,22.38,17.5,25.69.22.32-.1.87.78.55,2.07-.74,9.55-6.82,11.57-8.6,33.89-29.81,32.78-64.09,18.98-103.88-22.87-65.97-54.75-124.95-120.17-156.74l-38.24-18.63c6.15.17,12.35-.23,18.5-.02,56.19,1.92,101.52,18.82,122.15,74.63,16.3,44.09,16.45,77.16,58.4,107.16,43.96,31.44,97.29,52.7,144.95,78.22,2.1,1.12,4.69,2.41,6.4,3.92Z"/>
  <path class="cls-1" d="M487.2,181.9c.11,6.63-1.87,13.03-2.8,19.51-7.83,54.75-3.82,111.49-15.67,165.71-6.54,29.96-20.83,73.83-59.87,68-24.17-3.61-54.12-36.86-67.48-56.34-14.04-20.47-38.45-68.63-61.4-77.29-6.66-2.51-13.32-2.53-16.87,4.5-2.2,4.36-1.59,6.47-2.04,10.92-.05.49-.19,2.26-.9,2.21-3.2-11.07-4.64-23.23-3.84-34.78.49-7.13,1.56-11.02,6.22-16.33,5.26-5.99,13.46-14.12,19.44-19.43,14.06-12.5,37.17-21.51,54.02-30.45,2.87-1.52,13-6.52,14.6-8.44.81-.97,1.22-2.04-.05-2.77-.97-.55-10.3-2.66-11.97-2.9-8.66-1.27-17.89.21-26.58-1.5,1.46-4.85,8.12-6.58,12.48-7.91,11.29-3.44,23.68-5.34,35.47-5.57,3.63-10.87-7.37-9.63-13.07-13.46-.62-.41-1.64-.87-.79-1.58,1.18-.99,7.38-3.16,9.21-3.75,8.76-2.83,17.98-3.96,26.88-6.23,1.98-.5,4.1-1.85,6.01-2.15,4.4-.69,17.62,1.6,20.17-.72,1.45-1.32,1.39-5.24.09-6.81-1.14-1.37-8.88-6.96-10.86-8.34-3.34-2.33-8.48-4.09-10.87-5.93-.54-.41-.99-.5-.8-1.36,19.73-.73,40.35,1.94,59.02,8.41,6.98,2.42,12.9,6.88,19.23,9.09,8.34,2.91,6.24-4.11,5.12-9.44-1.45-6.88-4.38-12.74-8.49-18.39.17-.57,1.04-.15,1.44,0,5.74,2.03,29.61,15.18,33.61,19.18,1.39,1.4,1.54,3.46,3.17,4.51s5.2.83,5.71,1.49c.47,1.94.96,4.04,1.18,6.02.86,7.78.3,12.76-5.98,18-3.59,2.99-8.01,4.69-12.73,4.31Z"/>
  <path class="cls-1" d="M736.32,390.62l-5.29.72c-11.95,25.15-41.32,33.51-67.43,31.91-16.43-1.01-27.69-7.06-41.53-15.1-.97-.56-2.13-1.11-2.83-2-.51-1.73,11.33-20.53,12.67-23.68l7.92-1.68c-1.69,1.58-3.3,2.94-2.88,5.52,2.71.39,5.35-.77,7.93-.95,19.06-1.33,38.81,18.28,56.16,3.84,2.21-1.84,10.77-10.33,11.42-12.57,1.53-5.25-3.74-13.58-3.99-19.11l27.84,33.1Z"/>
  <path class="cls-1" d="M1018.52,491.83c-9.85,4.04-20.47,4.86-30.78,6.9-3.66.72-6.6,1.52-9.65,3.79-8,5.94-8.7,22.96-23.04,14.23-5.7-3.47-17.1-16.88-19.07-23.16-3.19-10.14,10.38-19.29,18.29-22.57,17.15-7.12,30.46-5.09,46.39,3.5,6.58,3.55,16.6,9.55,17.87,17.31Z"/>
  <path class="cls-1" d="M713.16,281.35c9.45-1.29,9.73,3.42,11.48,11.3,2.06,9.28,3.6,21.99,4.01,31.5s.36,16.73-11.05,12.49c-7.92-2.95-37.73-21.01-42.25-27.35-3.72-5.22,1.01-8.02,5.02-10.81,6.47-4.5,19.46-11.75,26.63-15.12,1.67-.78,4.35-1.77,6.14-2.01Z"/>
  <path class="cls-1" d="M685.68,345.04c-14.3,1.7-27.5,16.85-38.68,24.67-11.24,7.86-24.84,14.96-38.11,18.52l12.22-10.81c10.55-21.87,37.78-45.25,63.63-36.71l8.86,4.33c-2.53.21-5.45-.29-7.92,0Z"/>
  <path class="cls-1" d="M817.44,340.25c-.11.15-1.65-.92-1.92-1.2-2.88-2.99-5.4-13.75-6.39-18.08-3-13.2-4.24-26.83-6.09-40.22,2.16-1.85,9.39,8.16,10.47,9.92,4.8,7.82,7.48,22.03,6.82,31.12-.44,6.14-3.5,12.17-2.9,18.46Z"/>
  <path class="cls-1" d="M704.64,370.47c.98,20.2-22.97,25.23-37.59,16.7-4.48-2.61-8.93-7.37-8.92-12.81,2.42-.66,6.31-1.62,8.73-.92,1.47.43,3.12,3.95,4.4,5.2,4.91,4.78,15.73,4.92,21.14.94,3.65-2.69,3.36-5.78,5.52-9.37l6.73.25Z"/>
  <path class="cls-1" d="M954.76,530.31c.64-.55,11.95,3.03,14.17,3.25,4.9.49,13.49.3,17.8-2.24,1.69-1,9.13-10.4,9.77-4.19.36,3.52-3.2,7.53-5.92,9.48-7.89,5.66-27.96,8.24-34.43-.35-.9-1.2-2.74-4.79-1.4-5.95Z"/>
  <path class="cls-1" d="M698.25,357.19c4.62,4.22-3.31,13.5-8.49,6.8-5.23-6.76,4.64-10.32,8.49-6.8Z"/>
</svg>