<?xml version="1.0" standalone="no"?>
<!DOCTYPE svg PUBLIC "-//W3C//DTD SVG 20010904//EN"
 "http://www.w3.org/TR/2001/REC-SVG-20010904/DTD/svg10.dtd">
<svg version="1.0" xmlns="http://www.w3.org/2000/svg"
 width="1920.000000pt" height="1920.000000pt" viewBox="0 0 1920.000000 1920.000000"
 preserveAspectRatio="xMidYMid meet">

<g transform="translate(0.000000,1920.000000) scale(0.100000,-0.100000)"
fill="#000000" stroke="none">
<path d="M12392 17909 c-57 -63 -151 -177 -210 -254 -142 -188 -353 -397 -377
-374 -2 3 -23 76 -46 164 -54 210 -74 253 -139 304 -28 23 -55 41 -60 41 -4 0
-29 -41 -54 -92 l-45 -91 -3 164 -3 164 -159 -305 c-225 -432 -256 -488 -302
-539 l-41 -45 -56 86 c-68 103 -121 153 -179 168 -24 6 -51 13 -60 16 -14 4
-18 -1 -18 -23 0 -16 -4 -33 -9 -38 -5 -6 -11 -37 -14 -70 -2 -33 -13 -105
-22 -160 -14 -77 -16 -113 -9 -157 l10 -57 -51 -6 c-27 -3 -189 -14 -360 -25
-170 -11 -326 -22 -346 -24 l-37 -4 -32 122 c-94 346 -224 645 -396 909 -84
128 -115 157 -170 157 -37 0 -45 -4 -63 -34 -25 -40 -27 -102 -6 -201 12 -58
13 -90 4 -185 -6 -63 -13 -116 -14 -118 -2 -2 -77 43 -166 99 -555 347 -746
409 -743 240 1 -52 19 -93 99 -215 63 -96 105 -181 105 -213 0 -21 -1 -21 -52
7 -269 146 -808 261 -1228 264 -188 1 -263 -14 -299 -60 -62 -79 4 -169 203
-278 58 -32 116 -66 128 -77 l23 -18 -50 -1 c-151 -1 -457 -68 -740 -162 -263
-87 -325 -130 -325 -223 0 -51 33 -89 111 -125 27 -13 48 -28 46 -34 -2 -5
-70 -27 -153 -48 -263 -67 -404 -122 -497 -193 -82 -63 -101 -135 -47 -185 50
-47 102 -55 330 -52 127 1 201 -1 195 -7 -17 -15 -212 -119 -580 -306 -388
-197 -638 -335 -731 -401 -125 -88 -191 -196 -265 -429 -22 -71 -47 -146 -55
-165 -36 -92 -46 -376 -19 -536 52 -298 155 -538 437 -1014 189 -319 238 -406
238 -423 0 -7 -34 -67 -77 -133 -333 -519 -466 -756 -915 -1629 -265 -514
-424 -783 -626 -1055 -131 -176 -215 -272 -481 -544 -290 -298 -409 -429 -417
-462 -11 -43 8 -52 124 -56 95 -3 116 -7 190 -38 45 -18 82 -38 82 -43 0 -19
-67 -102 -231 -282 -338 -374 -432 -481 -505 -580 -41 -55 -87 -113 -102 -130
-16 -16 -64 -86 -106 -155 -116 -188 -267 -402 -597 -847 -425 -573 -561 -771
-740 -1083 -184 -321 -385 -791 -483 -1129 -40 -137 -44 -191 -21 -315 8 -44
22 -187 30 -317 8 -130 22 -277 30 -325 75 -439 327 -1138 576 -1597 225 -413
417 -635 722 -831 517 -333 1407 -600 2262 -680 336 -32 637 -36 3080 -41
1364 -3 3042 -8 3729 -11 937 -5 1247 -4 1242 5 -8 12 749 17 1932 11 l632 -3
34 36 c58 61 96 259 103 537 8 289 -9 407 -137 949 -33 140 -58 256 -56 258 8
8 69 -156 92 -246 13 -52 26 -96 27 -98 13 -12 104 14 129 36 58 52 85 260 74
576 -28 833 -176 1582 -451 2275 -84 211 -167 393 -383 835 -308 631 -404 872
-472 1175 -57 255 -21 417 105 480 49 25 53 25 315 26 186 1 337 8 505 23 220
20 296 22 912 21 810 0 1008 11 1303 76 314 70 541 182 728 358 104 98 159
141 359 275 84 56 177 122 207 147 41 33 63 44 89 44 46 0 73 23 155 133 160
214 218 328 368 717 100 261 134 333 271 579 145 258 210 392 248 511 23 72
29 110 34 244 6 132 10 160 24 171 29 21 23 124 -12 193 -96 189 -305 338
-622 443 -190 62 -270 100 -474 221 -205 121 -342 195 -870 468 -535 277 -651
339 -945 508 -506 290 -734 455 -797 576 -8 16 -31 81 -50 145 -31 102 -36
133 -40 257 -4 123 -1 163 23 315 38 235 40 428 6 539 -58 183 -121 271 -446
626 -176 191 -272 332 -323 471 -13 35 -39 127 -58 204 -43 170 -74 253 -124
339 -226 380 -949 1019 -1236 1091 -25 6 -45 14 -45 18 0 13 75 78 172 150
126 93 157 131 230 275 46 92 55 118 41 114 -10 -3 -227 -85 -482 -182 -255
-97 -467 -176 -470 -176 -4 0 1 46 11 103 18 106 22 328 9 516 l-6 94 -103
-114z m-73 -491 c-19 -107 -49 -358 -43 -366 1 -2 442 163 599 224 16 7 15 2
-9 -27 -39 -46 -56 -89 -56 -143 0 -73 50 -120 164 -153 265 -77 910 -641
1134 -992 50 -79 78 -154 127 -342 86 -328 158 -448 481 -801 245 -266 316
-371 350 -514 20 -87 14 -247 -17 -419 -13 -72 -24 -188 -28 -291 l-6 -172
-72 82 c-150 169 -236 303 -320 496 -58 135 -82 204 -183 539 -109 362 -150
476 -239 656 -338 685 -938 1078 -1836 1201 -80 10 -252 19 -515 25 -217 5
-467 15 -555 23 -88 7 -161 12 -163 11 -5 -4 254 -195 302 -223 22 -13 195
-98 385 -188 372 -178 589 -291 742 -387 757 -472 1319 -1245 1762 -2422 176
-469 241 -729 253 -1020 19 -429 -135 -766 -490 -1074 -54 -47 -101 -80 -105
-75 -5 5 -67 97 -138 204 -105 158 -138 199 -170 218 -89 49 -177 17 -316
-115 -164 -156 -348 -280 -592 -398 -177 -86 -322 -145 -694 -285 -921 -345
-1477 -593 -1737 -777 -81 -57 -109 -57 -170 -1 -55 51 -151 192 -210 310 -24
48 -44 91 -44 96 0 4 22 32 50 62 62 67 115 167 136 256 21 91 14 198 -27 384
-41 187 -44 305 -11 401 12 36 63 135 112 220 80 136 90 160 90 203 0 43 -4
53 -39 87 -67 67 -114 53 -325 -95 -494 -348 -830 -713 -1059 -1153 -163 -315
-266 -618 -346 -1023 -60 -300 -111 -718 -111 -900 0 -142 12 -179 69 -217 63
-43 124 -25 251 72 43 33 76 52 78 45 2 -6 -4 -50 -13 -96 -10 -46 -15 -87
-11 -91 3 -4 93 12 199 35 340 73 503 92 813 92 372 0 675 -49 999 -160 238
-82 399 -164 755 -383 581 -358 811 -462 1135 -512 152 -23 225 -42 405 -108
91 -33 166 -61 168 -62 2 -2 -7 -36 -20 -76 -66 -215 11 -577 234 -1094 33
-77 146 -315 250 -530 234 -480 288 -596 376 -817 220 -550 353 -1108 416
-1748 18 -183 36 -479 36 -594 l0 -81 -43 79 c-24 43 -58 96 -75 117 -62 73
-149 74 -212 2 -32 -36 -32 -38 -28 -117 3 -52 36 -213 92 -453 115 -498 127
-567 133 -798 5 -188 -5 -314 -37 -462 l-12 -53 -372 0 -372 0 13 123 c28 285
5 887 -43 1092 -2 11 15 -18 40 -65 24 -47 56 -97 71 -112 49 -49 115 -48 174
2 l34 29 -7 113 c-8 135 -38 348 -72 513 -100 482 -263 897 -517 1320 -150
251 -286 442 -696 980 -461 603 -702 966 -866 1302 -167 343 -244 644 -232
908 11 221 69 386 207 579 38 55 70 102 70 105 0 9 -356 -6 -450 -18 -447 -61
-818 -195 -1141 -410 -458 -306 -712 -696 -781 -1199 -7 -51 -15 -92 -18 -92
-9 0 -132 129 -193 201 -80 97 -147 200 -205 315 -73 145 -117 176 -198 138
-46 -22 -81 -85 -115 -205 -52 -186 -70 -323 -79 -612 -4 -148 -10 -270 -13
-273 -7 -8 -102 136 -155 236 -64 119 -108 234 -163 425 -36 126 -48 155 -76
184 -32 32 -36 33 -92 29 -74 -5 -143 -45 -251 -146 l-79 -73 -11 40 c-45 166
-90 445 -90 554 0 71 -66 115 -126 84 -107 -56 -204 -243 -278 -536 l-24 -94
-22 49 c-292 648 -474 1234 -554 1794 -38 259 -49 439 -43 665 6 217 24 354
61 480 14 45 26 117 29 165 7 138 56 252 237 550 195 321 296 530 391 810 90
261 144 506 178 795 10 88 18 161 17 162 -2 2 -631 -370 -736 -434 -66 -41
-169 -147 -227 -234 -28 -41 -86 -140 -128 -220 -134 -250 -213 -359 -373
-510 -117 -111 -342 -273 -357 -257 -3 3 15 80 40 172 113 424 166 800 167
1176 0 194 -18 457 -33 474 -4 4 -43 -13 -87 -39 -92 -55 -125 -94 -210 -246
l-57 -104 -2 75 c-8 245 -43 496 -129 921 -66 326 -99 446 -132 483 -11 11
-41 59 -67 106 -26 47 -105 182 -175 300 -147 246 -241 419 -294 538 l-38 84
25 26 c39 42 47 66 56 159 15 161 52 189 184 144 148 -51 310 -207 522 -501
101 -140 142 -204 375 -580 264 -428 384 -588 617 -831 387 -401 779 -619
1113 -619 227 0 389 70 566 245 309 304 518 865 619 1660 44 348 62 593 95
1305 33 712 43 832 102 1259 42 298 43 304 68 314 156 62 249 138 305 249 34
69 35 74 35 186 0 142 -15 232 -46 278 -21 31 -24 45 -23 132 0 53 4 117 7
142 l7 45 33 -60 c111 -202 228 -523 288 -787 16 -70 21 -80 55 -104 l38 -26
478 31 c354 24 486 36 509 47 62 31 79 100 48 199 -13 40 -15 65 -8 110 l9 58
40 -58 c46 -68 86 -95 137 -95 53 0 82 14 140 67 62 58 107 124 182 266 32 59
60 107 62 107 3 0 31 -13 63 -29 55 -28 60 -29 82 -14 43 29 87 75 100 104 6
16 14 29 18 29 3 0 16 -37 29 -83 30 -110 60 -167 101 -194 66 -44 149 -24
259 60 75 58 221 213 297 314 43 57 61 75 63 62 2 -10 -7 -73 -19 -141z
m-9250 -9380 c-19 -132 -17 -480 4 -580 21 -101 47 -151 91 -172 43 -20 61
-20 109 2 34 15 43 28 85 122 98 216 187 346 324 475 50 47 94 85 98 85 4 0
10 -114 13 -252 6 -275 20 -393 76 -610 89 -343 269 -723 547 -1150 75 -115
86 -128 123 -139 36 -11 45 -10 94 15 85 41 86 47 65 283 -17 201 -22 559 -9
663 8 63 7 67 46 -105 88 -378 248 -835 431 -1227 167 -356 436 -820 501 -864
58 -38 148 -11 179 55 15 32 15 50 -6 275 -12 133 -26 284 -31 336 -11 122
-11 402 1 375 4 -11 31 -91 59 -179 261 -810 754 -1575 1361 -2109 112 -98
245 -201 581 -448 57 -42 149 -114 204 -159 125 -104 151 -120 196 -120 25 0
42 8 62 27 l26 28 -54 655 c-30 360 -56 675 -58 700 -4 37 -3 42 7 26 73 -120
150 -220 244 -318 63 -65 118 -118 123 -118 5 0 9 60 9 132 l0 132 65 -111
c183 -317 423 -583 900 -998 335 -292 529 -488 696 -708 75 -97 183 -230 240
-294 l104 -116 6 124 c6 115 -1 255 -17 339 -5 26 21 -9 103 -136 139 -216
328 -490 627 -909 l235 -330 -332 -3 c-182 -2 -1061 2 -1952 7 -891 6 -2356
11 -3255 11 -1676 0 -1839 3 -2220 41 -665 66 -1361 252 -1865 499 -419 205
-620 388 -856 781 -294 489 -593 1306 -648 1771 -6 46 -15 173 -21 283 -6 110
-18 232 -26 270 -20 101 -18 131 21 260 106 350 308 811 495 1130 158 268 318
500 701 1015 274 367 412 561 542 761 l109 166 56 13 c196 43 467 172 693 329
56 39 104 69 107 67 2 -3 -2 -47 -9 -98z" fill="#C5C5C5"/>
<path d="M12245 13786 c-295 -57 -582 -260 -809 -570 -28 -38 -67 -99 -87
-135 -30 -57 -56 -84 -188 -196 -148 -125 -156 -134 -206 -225 -29 -52 -49
-96 -45 -98 11 -4 313 73 396 101 l70 25 -53 -104 c-44 -88 -53 -113 -53 -158
0 -75 18 -98 145 -183 146 -98 381 -192 580 -232 505 -102 997 2 1324 281 83
70 191 196 219 255 12 25 24 34 51 39 20 3 49 8 64 11 20 3 47 28 90 80 34 41
64 79 65 84 2 5 -25 9 -61 9 l-65 0 -271 324 c-186 222 -279 341 -295 378 -45
101 -90 138 -210 173 -33 9 -103 38 -155 65 -53 26 -121 55 -151 65 -75 22
-265 28 -355 11z" fill="#C5C5C5"/>
</g>
</svg>
